<?xml version="1.0" standalone="no"?>
<!DOCTYPE svg PUBLIC "-//W3C//DTD SVG 20010904//EN"
 "http://www.w3.org/TR/2001/REC-SVG-20010904/DTD/svg10.dtd">
<svg version="1.0" xmlns="http://www.w3.org/2000/svg"
 width="4000.000000pt" height="4000.000000pt" viewBox="0 0 4000.000000 4000.000000"
 preserveAspectRatio="xMidYMid meet">

<g transform="translate(0.000000,4000.000000) scale(0.100000,-0.100000)"
fill="#000000" stroke="none">
<path d="M15890 25845 c-580 -70 -1080 -272 -1407 -569 l-62 -57 -53 34 c-194
125 -509 250 -787 312 -234 53 -392 69 -691 69 -318 0 -497 -19 -806 -84 -336
-72 -812 -233 -1084 -368 -628 -311 -1196 -943 -1606 -1787 -512 -1054 -721
-2290 -548 -3245 76 -417 233 -778 453 -1041 217 -260 505 -431 876 -519 273
-66 524 -62 803 11 298 78 536 213 839 474 l42 36 6 -48 c42 -340 124 -603
260 -844 109 -192 268 -388 430 -530 52 -46 95 -87 95 -91 0 -18 -75 -157
-128 -236 -154 -235 -356 -435 -588 -586 -40 -25 -132 -78 -205 -117 -248
-133 -418 -246 -634 -420 -698 -561 -1273 -1383 -1619 -2312 -111 -298 -186
-574 -256 -942 -80 -422 -110 -716 -110 -1087 0 -147 -4 -248 -9 -248 -19 0
-178 62 -266 104 -527 250 -893 747 -1040 1410 -39 176 -69 227 -166 275 -132
66 -285 28 -365 -91 -58 -86 -158 -499 -189 -783 -18 -161 -20 -464 -5 -596
100 -840 620 -1447 1547 -1805 235 -91 548 -172 826 -215 l149 -23 102 -156
c56 -85 140 -202 185 -260 98 -124 413 -439 523 -525 43 -32 76 -60 75 -61 -1
-1 -164 -5 -362 -8 -1124 -20 -1670 -33 -2160 -51 -254 -9 -854 -34 -965 -40
-290 -15 -609 -33 -715 -40 -268 -17 -397 -26 -450 -30 -33 -3 -121 -10 -195
-15 -74 -6 -143 -13 -152 -16 -21 -6 -24 -47 -5 -61 6 -6 86 -16 177 -22 91
-7 188 -14 215 -16 28 -2 88 -7 135 -10 47 -3 117 -8 155 -10 511 -36 1521
-81 2360 -105 594 -17 750 -20 1830 -36 1092 -16 3212 -21 5670 -13 1513 5
3936 8 5385 7 5957 -6 7911 -2 8425 17 55 2 253 6 440 9 187 4 419 9 515 11
96 3 339 10 540 15 519 14 581 16 1345 45 375 15 906 39 1105 50 52 3 131 8
175 10 450 26 613 36 633 40 17 4 22 12 22 35 0 16 -3 31 -7 33 -5 3 -53 8
-108 11 -55 4 -129 9 -165 11 -146 10 -284 18 -685 40 -55 3 -251 12 -435 20
-184 8 -389 17 -455 20 -148 7 -902 33 -1160 40 -104 3 -260 7 -345 10 -212 7
-511 14 -1054 25 -253 6 -461 12 -463 13 -1 2 18 32 43 68 54 76 161 253 198
326 l26 53 108 -55 c557 -278 1182 -323 1659 -118 343 147 625 449 737 788 47
142 58 212 63 403 10 352 -44 643 -221 1172 -100 300 -118 381 -119 515 -1 84
2 107 20 141 39 73 115 121 149 93 8 -7 40 -64 70 -127 73 -152 116 -213 214
-306 176 -165 427 -241 685 -207 509 67 833 557 691 1044 -96 327 -421 723
-768 935 -423 259 -918 317 -1368 160 -130 -46 -305 -141 -426 -231 -383 -287
-611 -677 -655 -1122 -16 -159 -6 -415 21 -575 56 -323 138 -571 325 -978 114
-250 160 -436 136 -548 -11 -50 -21 -67 -65 -110 -68 -67 -141 -95 -258 -102
-99 -5 -191 8 -298 44 -79 27 -239 103 -279 133 l-23 18 35 149 c44 181 80
382 104 569 22 175 25 709 5 880 -118 994 -702 1794 -1659 2274 -270 135 -538
232 -871 315 -269 67 -407 125 -591 246 l-95 62 55 46 c343 292 573 660 688
1105 101 390 118 837 46 1267 l-22 135 57 80 c351 495 633 1185 779 1912 43
211 40 314 -12 433 -61 140 -214 256 -372 283 -69 12 19 20 -1702 -154 l-402
-40 -98 59 c-401 242 -852 394 -1318 443 -134 14 -396 17 -565 6 l-125 -8
-340 234 -340 234 -6 184 c-39 1090 -471 2342 -1092 3163 -248 329 -569 640
-848 822 -192 125 -287 172 -588 290 -377 147 -756 247 -1121 296 -222 29
-646 31 -850 4 -424 -56 -847 -203 -1119 -389 -29 -20 -48 -27 -57 -21 -7 5
-54 45 -106 88 -327 279 -747 456 -1270 537 -174 27 -533 34 -698 14z m515
-376 c2 -3 -9 -95 -24 -204 -54 -372 -66 -546 -66 -945 0 -439 19 -655 90
-1009 37 -183 110 -445 156 -556 7 -16 13 -34 15 -40 6 -24 95 -227 129 -295
120 -239 261 -445 440 -643 53 -59 95 -107 93 -107 -2 0 -57 11 -123 24 -332
67 -581 91 -965 91 -320 0 -440 -8 -695 -46 -71 -11 -150 -22 -175 -25 -44 -5
-45 -5 -25 13 23 21 131 146 189 219 118 150 287 439 370 634 317 742 401
1692 242 2738 -12 83 -20 155 -17 158 7 7 359 0 366 -7z m3580 -238 c165 -23
388 -70 535 -112 58 -16 132 -37 165 -46 90 -25 438 -158 540 -207 475 -226
921 -678 1280 -1296 382 -657 641 -1484 709 -2264 7 -83 12 -153 10 -155 -1
-1 -43 25 -93 59 -77 53 -91 66 -91 89 0 42 -57 378 -86 509 -72 322 -182 679
-289 937 -20 50 -46 112 -57 140 -35 87 -197 415 -265 534 -239 420 -565 823
-861 1063 -42 35 -86 71 -97 81 -11 10 -77 56 -147 103 -174 116 -372 210
-690 329 -27 10 -48 22 -48 26 0 5 -3 8 -7 7 -5 -1 -53 13 -108 31 -256 83
-606 156 -895 185 l-145 15 250 -4 c182 -2 288 -9 390 -24z m-8110 -131 c-22
-11 -80 -38 -130 -61 -803 -369 -1508 -1313 -1891 -2531 -213 -678 -302 -1412
-243 -2013 64 -659 299 -1174 657 -1440 45 -32 80 -60 78 -62 -5 -5 -165 37
-236 63 -41 14 -113 46 -160 69 -387 194 -636 645 -727 1315 -26 192 -26 758
1 975 87 730 291 1390 617 2006 199 376 418 678 689 950 287 289 523 443 900
590 260 101 565 196 445 139z m3276 -2176 c67 -64 85 -228 39 -349 -27 -68
-91 -141 -135 -154 -135 -36 -217 178 -144 374 55 147 162 204 240 129z m2256
19 c79 -37 138 -164 138 -298 0 -143 -51 -225 -141 -225 -37 0 -51 6 -85 37
-51 46 -76 96 -96 187 -34 162 28 312 130 315 11 1 35 -7 54 -16z m-2847 -435
c34 -57 20 -155 -31 -209 -55 -59 -119 -20 -119 73 0 130 99 219 150 136z
m3412 5 c35 -37 48 -73 48 -137 0 -62 -27 -106 -65 -106 -56 0 -114 108 -102
186 14 84 68 110 119 57z m4018 -967 c0 -2 -8 -10 -17 -17 -16 -13 -17 -12 -4
4 13 16 21 21 21 13z m-5351 -135 c916 -108 1703 -425 2130 -861 288 -294 412
-590 398 -955 -13 -313 -129 -601 -375 -930 -97 -129 -395 -426 -542 -539
-518 -399 -1110 -666 -1702 -767 -159 -27 -481 -37 -640 -19 -735 79 -1561
475 -2117 1015 -349 339 -561 689 -638 1055 -23 113 -23 363 1 468 98 438 418
801 951 1081 452 238 1073 411 1655 461 69 5 143 12 165 14 105 11 550 -4 714
-23z m5743 -122 c13 -6 151 -100 308 -207 157 -108 328 -225 380 -261 52 -36
326 -224 609 -419 283 -194 521 -357 531 -362 28 -15 80 -15 234 -1 264 25
617 3 861 -54 99 -23 292 -80 342 -102 l42 -18 -95 -103 c-469 -509 -671
-1171 -563 -1842 51 -313 190 -644 383 -915 59 -83 222 -269 266 -305 17 -14
56 -49 88 -78 95 -88 275 -207 436 -288 392 -199 854 -273 1296 -208 58 8 130
22 161 30 31 8 62 14 68 14 14 0 6 -38 -36 -180 -231 -775 -845 -1220 -1838
-1332 -143 -16 -635 -16 -790 0 -393 42 -730 105 -1102 207 -705 193 -1276
463 -1723 814 -121 95 -332 301 -420 411 -448 562 -525 1212 -228 1920 80 188
172 351 311 550 97 138 100 151 63 330 -48 239 -58 348 -62 655 -4 375 18 606
92 975 57 286 176 688 218 737 40 47 113 61 168 32z m-3082 -622 c132 -67 355
-208 416 -264 20 -17 47 -65 74 -128 50 -118 158 -327 242 -469 68 -115 74
-138 86 -358 53 -922 -400 -1569 -1365 -1948 -167 -66 -529 -177 -540 -166 -2
1 1 25 6 52 5 27 15 104 22 172 l12 123 86 62 c622 449 1034 1007 1151 1559
88 413 15 829 -205 1174 -46 73 -161 217 -209 263 -20 19 -36 38 -36 43 0 10
99 -33 260 -115z m-6198 -78 c-230 -305 -335 -641 -318 -1014 29 -650 446
-1297 1178 -1828 114 -82 128 -95 128 -122 0 -16 7 -85 16 -153 9 -68 14 -126
11 -128 -6 -6 -152 35 -314 87 -339 110 -670 280 -906 465 -273 215 -490 531
-581 846 -61 213 -80 365 -74 627 l4 199 33 53 c158 250 291 493 366 669 20
48 48 95 63 107 82 69 370 252 421 268 12 3 19 11 16 16 -3 5 1 6 9 3 11 -4
-1 -27 -52 -95z m7439 -1445 c54 -59 250 -220 349 -287 135 -90 332 -186 479
-233 64 -20 117 -38 119 -39 1 -1 -16 -33 -39 -71 -67 -110 -193 -378 -242
-514 -90 -249 -135 -483 -144 -740 -16 -473 134 -931 437 -1335 145 -192 360
-407 561 -559 119 -89 119 -88 21 -239 -338 -523 -525 -1056 -578 -1651 -31
-356 11 -761 113 -1071 139 -426 383 -818 700 -1126 l99 -97 62 -303 c98 -488
232 -1143 237 -1159 3 -10 -22 -36 -70 -73 -101 -78 -177 -172 -235 -292 -54
-110 -86 -223 -96 -336 -4 -41 -11 -80 -16 -86 -8 -10 -216 -13 -940 -13 -813
0 -930 2 -925 14 14 37 19 218 8 306 -47 372 -250 683 -599 916 l-73 49 0 345
c1 325 14 932 26 1175 2 61 7 173 10 250 16 403 52 1108 80 1555 25 386 22
365 53 427 46 90 146 345 191 484 103 318 171 678 200 1044 11 142 11 546 0
700 -35 485 -139 997 -302 1497 l-55 168 37 42 c146 169 275 385 358 602 66
173 127 459 135 629 1 26 5 47 8 47 4 0 17 -12 31 -26z m-828 -1764 c105 -357
167 -656 212 -1030 26 -209 32 -719 10 -940 -125 -1321 -824 -2369 -2115
-3172 l-125 -78 -6 58 c-4 31 -7 158 -8 282 -1 226 -16 666 -26 750 l-5 45 76
28 c214 81 446 314 568 571 51 108 103 263 127 383 31 152 38 451 14 617 -57
411 -241 815 -540 1186 -34 42 -64 81 -68 87 -4 6 11 44 32 85 82 150 163 348
227 553 19 60 36 111 38 113 2 2 62 17 133 33 506 117 978 315 1318 553 56 39
81 52 86 43 4 -6 28 -82 52 -167z m-1873 36 c0 -70 -88 -432 -145 -596 -64
-182 -204 -490 -224 -490 -4 0 -15 24 -25 53 -10 28 -38 100 -63 159 l-44 106
26 52 c60 119 107 305 121 478 l7 93 71 32 c39 17 114 53 166 79 107 53 110
54 110 34z m-3100 -112 l75 -33 7 -103 c10 -162 58 -350 119 -470 11 -21 19
-43 19 -50 -1 -14 -105 -276 -113 -284 -9 -9 -124 238 -176 378 -59 158 -111
340 -146 514 -37 179 -40 171 58 122 45 -23 116 -56 157 -74z m-1613 -8 c18
-17 -67 -195 -165 -346 -70 -107 -211 -276 -318 -380 -173 -168 -302 -259
-554 -395 -192 -103 -350 -204 -512 -327 -858 -653 -1549 -1733 -1826 -2855
l-47 -192 -67 -30 c-68 -30 -68 -30 -68 -8 0 31 72 379 109 522 216 855 709
1728 1327 2351 291 292 558 493 909 685 290 158 421 254 621 453 179 180 300
342 426 575 l18 32 67 -37 c38 -20 73 -42 80 -48z m1954 -2425 c185 -643 652
-1043 1348 -1155 52 -9 96 -17 98 -20 3 -2 -28 -11 -69 -20 -417 -90 -838 6
-1084 249 -242 239 -366 616 -363 1107 l1 163 19 -109 c10 -59 33 -156 50
-215z m7355 -68 c165 -231 421 -476 671 -643 69 -46 115 -83 117 -95 51 -253
139 -413 299 -545 79 -64 211 -133 313 -162 106 -30 313 -32 419 -4 164 43
297 126 422 261 75 81 80 85 121 85 74 0 232 20 362 46 457 91 868 289 1235
594 85 70 97 77 218 117 70 24 178 66 239 93 61 28 115 50 119 50 3 0 35 -23
70 -51 244 -196 499 -320 822 -399 228 -55 371 -100 551 -170 743 -292 1289
-790 1551 -1415 193 -460 249 -969 170 -1546 -31 -230 -117 -602 -176 -768
-17 -47 -32 -102 -34 -121 -5 -63 -125 -361 -231 -573 -128 -254 -250 -432
-383 -560 l-81 -77 -692 5 c-381 3 -788 8 -905 11 l-211 6 -7 67 c-8 78 7 210
34 301 l20 65 -43 -48 c-63 -71 -138 -201 -171 -301 l-30 -87 -124 3 -125 3
-8 30 c-5 17 -11 77 -15 135 -6 120 6 196 43 265 20 39 21 44 6 36 -34 -18
-101 -99 -130 -158 -32 -63 -64 -162 -82 -255 l-11 -58 -106 0 -106 0 6 113
c18 333 136 496 407 563 110 28 450 25 688 -4 209 -26 188 -26 212 -2 49 49
19 86 -135 163 -190 94 -391 156 -583 180 l-97 12 -34 90 c-139 373 -75 751
199 1162 43 65 108 153 144 197 36 43 66 82 66 86 0 4 -7 13 -15 20 -13 11
-23 9 -58 -10 -324 -180 -612 -528 -716 -865 -43 -142 -54 -212 -55 -362 l-1
-132 -30 19 c-16 10 -93 55 -170 100 -77 46 -145 87 -151 91 -7 6 -7 36 2 101
33 242 56 562 57 813 l2 260 -26 3 c-25 3 -29 -4 -79 -130 -117 -295 -237
-702 -341 -1158 -70 -307 -176 -817 -229 -1105 -17 -93 -33 -178 -36 -187 -5
-17 -25 -18 -236 -18 l-231 0 6 123 c3 80 13 147 27 196 11 40 19 75 17 78 -5
4 -62 -65 -104 -127 -40 -59 -98 -174 -113 -227 -7 -24 -18 -43 -24 -44 -43
-2 -280 1 -283 5 -3 2 -8 44 -13 92 -11 122 3 225 39 299 16 33 28 61 26 64
-3 2 -30 -23 -62 -55 -70 -72 -123 -176 -154 -301 -12 -48 -23 -94 -25 -100
-3 -10 -48 -13 -184 -13 l-181 0 6 48 c18 131 72 251 146 323 29 29 85 66 135
91 102 50 150 99 160 163 4 31 -4 94 -31 222 -96 471 -232 1034 -340 1413 -84
293 -234 739 -286 853 -13 29 -43 36 -56 13 -17 -31 20 -563 62 -906 33 -258
34 -242 -12 -234 -96 16 -349 86 -453 124 -231 85 -463 208 -647 346 -105 79
-287 257 -377 368 -145 179 -303 451 -381 655 -264 694 -149 1603 301 2367 30
52 57 94 59 94 2 0 25 -30 51 -67z m1899 -395 c90 -21 101 -26 118 -55 10 -17
25 -66 33 -107 30 -144 -17 -291 -125 -395 -85 -82 -199 -131 -305 -131 l-33
0 53 211 c30 117 54 223 54 236 0 31 -42 73 -75 73 -62 0 -62 -1 -146 -317
l-43 -161 -27 14 c-33 17 -127 106 -162 155 -14 20 -36 65 -48 100 -18 53 -20
79 -16 157 4 81 9 102 40 165 24 49 55 91 94 129 l58 55 215 -53 c118 -29 260
-63 315 -76z m-9380 -578 c255 -354 655 -551 1144 -564 518 -13 933 162 1212
512 l58 72 24 -32 c72 -96 142 -232 167 -326 10 -38 6 -63 -29 -220 -102 -458
-193 -1095 -216 -1522 -4 -63 -9 -126 -12 -140 -3 -14 -8 -366 -10 -783 -5
-684 -3 -763 11 -801 20 -52 41 -72 126 -119 268 -147 452 -364 517 -607 18
-71 24 -241 10 -322 l-8 -48 -138 0 -138 0 -8 82 c-16 191 -92 393 -180 478
l-46 45 27 -60 c48 -105 45 -290 -8 -472 l-21 -73 -222 0 -222 0 -7 50 c-12
87 -55 221 -103 315 -43 86 -102 180 -108 173 -1 -2 4 -39 12 -83 10 -56 13
-118 9 -205 -4 -111 -24 -231 -39 -246 -3 -3 -219 -2 -481 2 l-475 7 -90 211
c-240 562 -342 845 -646 1786 -132 410 -263 727 -309 748 -15 7 -25 22 -29 44
-127 733 -151 952 -151 1388 0 229 4 327 18 435 29 224 97 467 159 572 l19 33
62 -123 c33 -68 88 -161 121 -207z m17661 -345 c405 -71 764 -336 991 -733
132 -232 111 -441 -60 -599 -91 -84 -194 -118 -337 -111 -76 4 -108 10 -153
31 -123 56 -188 122 -243 247 -155 354 -391 463 -677 313 -195 -103 -294 -266
-304 -506 -10 -206 26 -384 148 -737 130 -378 192 -679 193 -935 1 -230 -31
-363 -128 -530 -49 -82 -177 -220 -261 -280 -286 -203 -687 -252 -1130 -139
-119 30 -323 109 -420 163 -55 30 -70 43 -68 59 2 18 79 199 89 211 2 2 57
-21 121 -52 215 -101 372 -140 578 -140 114 0 156 4 225 22 201 53 378 186
453 341 58 118 70 183 64 335 -8 202 -54 351 -225 725 -177 387 -265 738 -266
1060 -1 174 8 241 50 386 106 368 427 698 801 823 178 60 381 77 559 46z
m-13145 -537 c-7 -134 -14 -268 -16 -298 -2 -30 -7 -120 -10 -200 -3 -80 -8
-174 -10 -210 -2 -36 -7 -144 -10 -240 -3 -96 -8 -202 -10 -235 -2 -33 -7
-181 -11 -330 -4 -148 -8 -295 -9 -325 -6 -133 -5 -1068 1 -1086 16 -45 58
-85 131 -124 308 -166 496 -411 534 -696 11 -86 7 -174 -12 -246 l-10 -38
-108 0 -108 0 -7 86 c-16 193 -92 397 -181 484 l-46 45 27 -59 c49 -108 44
-298 -12 -478 l-25 -78 -164 0 -165 0 -5 28 c-26 139 -60 248 -110 347 -58
115 -122 204 -111 155 31 -149 32 -314 1 -447 l-17 -73 -346 0 -347 0 3 152
c4 175 -15 294 -68 433 -91 236 -272 456 -504 614 l-109 74 7 281 c4 155 11
371 16 481 5 110 12 323 16 474 l7 274 41 24 c500 294 717 442 1016 691 163
136 527 505 640 648 52 67 97 120 99 118 2 -2 -2 -113 -8 -246z m-11927 -261
l40 -102 -3 -235 c-3 -259 7 -386 45 -557 79 -356 231 -630 496 -896 140 -140
139 -144 -12 -31 -373 281 -590 646 -656 1104 -23 164 -16 501 16 693 12 76
25 135 28 132 3 -3 24 -51 46 -108z m5611 -447 c167 -86 418 -276 512 -388
166 -196 246 -392 274 -664 22 -222 -25 -474 -141 -750 l-32 -78 -56 0 c-134
0 -405 -38 -617 -86 -234 -53 -596 -172 -683 -224 -39 -24 -50 -61 -28 -95 20
-30 51 -32 158 -10 304 64 581 96 899 102 216 5 291 2 405 -12 515 -64 786
-258 878 -630 23 -91 38 -279 30 -377 l-7 -88 -173 0 -174 0 0 48 c-1 198 -85
445 -185 542 l-46 45 27 -60 c24 -51 28 -77 32 -170 5 -121 -5 -186 -45 -317
l-26 -88 -241 0 -241 0 -13 67 c-15 80 -55 199 -90 268 -31 64 -112 189 -117
183 -3 -2 1 -22 7 -44 17 -56 14 -345 -3 -414 l-14 -55 -1129 -8 -1129 -7 -96
51 c-375 200 -751 531 -1003 884 -336 471 -520 983 -583 1625 -15 146 -21 641
-8 653 3 4 19 -42 34 -101 78 -301 180 -496 340 -646 177 -166 376 -223 689
-197 290 25 547 98 825 236 190 94 352 196 625 396 322 236 459 321 615 382
122 48 210 65 342 66 111 1 112 1 188 -39z m9865 -1447 c238 -117 570 -222
850 -269 58 -9 108 -20 112 -23 3 -3 27 -121 52 -262 26 -141 59 -321 75 -400
17 -83 25 -145 20 -147 -18 -7 -108 -81 -149 -124 -132 -135 -220 -343 -237
-555 l-6 -83 -125 0 -125 0 6 113 c3 66 14 141 26 182 11 38 18 71 17 73 -2 1
-23 -20 -46 -48 -52 -62 -120 -181 -150 -260 l-22 -60 -139 0 c-136 0 -139 0
-143 23 -22 105 -11 232 26 307 20 41 21 47 7 39 -58 -31 -135 -165 -170 -297
l-22 -82 -95 0 -94 0 7 53 c27 211 109 338 269 418 121 60 166 113 166 194 0
19 -56 309 -125 645 -69 337 -125 617 -125 622 0 5 3 8 8 6 4 -1 63 -31 132
-65z m3304 -934 c77 -45 143 -84 145 -86 3 -2 -16 -25 -41 -51 -146 -150 -220
-364 -222 -644 l-1 -138 -108 0 c-98 0 -108 2 -103 18 9 31 95 502 131 722 42
250 43 260 51 260 4 0 70 -37 148 -81z m-11250 -177 c61 -172 184 -487 254
-649 l41 -93 -105 0 -104 0 -1 153 c0 83 -2 166 -4 182 -24 183 -63 322 -127
454 -41 83 -48 105 -37 112 8 5 16 9 19 9 3 0 31 -76 64 -168z"/>
<path d="M15805 21085 c-644 -72 -1031 -274 -1145 -599 -67 -189 -42 -387 79
-641 108 -227 246 -420 431 -605 243 -243 449 -367 727 -437 100 -25 123 -28
313 -28 182 0 216 3 300 24 285 70 496 196 741 440 189 190 303 349 420 586
146 297 165 510 66 720 -131 275 -481 454 -1037 531 -166 23 -720 28 -895 9z
m1160 -295 c271 -70 415 -235 338 -385 -109 -210 -550 -307 -886 -194 -145 48
-239 116 -278 202 -26 58 -24 104 7 166 56 112 214 196 432 231 91 14 296 4
387 -20z m43 -846 c72 -46 81 -144 18 -201 -45 -41 -79 -50 -130 -32 -108 38
-117 193 -14 239 44 20 89 17 126 -6z"/>
<path d="M22583 20654 c-55 -20 -119 -83 -144 -142 -26 -59 -70 -217 -103
-364 -69 -310 -81 -653 -31 -928 9 -47 21 -98 27 -113 13 -33 54 -57 99 -57
35 0 54 18 154 139 232 280 620 502 1050 600 70 16 133 35 141 43 24 23 32 71
20 108 -12 38 25 11 -584 429 -210 144 -401 271 -425 281 -51 24 -143 25 -204
4z"/>
<path d="M23204 18229 c-121 -16 -241 -70 -325 -148 l-54 -49 35 -6 c19 -3 89
-10 155 -17 237 -22 406 -85 576 -213 103 -78 176 -164 229 -270 l40 -78 26
55 c71 157 23 361 -121 516 -149 160 -353 236 -561 210z"/>
<path d="M21920 17207 c11 -11 584 -227 602 -227 27 0 68 44 68 73 0 14 -8 35
-18 47 -16 20 -46 26 -302 61 -157 21 -301 41 -320 45 -19 3 -33 3 -30 1z"/>
<path d="M24300 17173 c-69 -35 -91 -77 -92 -165 0 -115 60 -252 160 -368 l42
-49 -32 -88 c-29 -78 -37 -90 -69 -106 -94 -45 -279 -47 -375 -3 -29 14 -73
45 -98 71 -53 56 -112 164 -122 223 -4 24 -10 45 -15 48 -16 10 -31 -82 -27
-166 6 -101 33 -178 88 -251 l38 -51 -15 -51 c-24 -84 -29 -356 -9 -457 33
-163 95 -287 191 -382 132 -133 310 -174 492 -113 234 78 442 321 533 622 l22
72 64 30 c116 54 226 192 250 311 l6 35 -50 -52 c-98 -102 -232 -161 -338
-150 -107 11 -290 121 -330 199 -14 27 -13 35 13 113 19 59 32 85 43 85 68 0
251 76 333 138 101 77 135 179 86 258 -85 139 -407 274 -652 274 -71 0 -91 -4
-137 -27z m543 -213 c56 -26 87 -64 68 -83 -33 -33 -192 6 -241 59 -20 20 -21
26 -9 40 19 23 118 14 182 -16z"/>
<path d="M22195 16685 c-154 -51 -269 -93 -255 -94 14 -1 151 9 305 21 261 21
281 24 303 45 31 31 29 76 -4 102 -15 12 -36 21 -48 20 -11 0 -147 -43 -301
-94z"/>
<path d="M22512 16371 c-194 -179 -368 -353 -332 -334 201 109 509 297 517
316 21 48 -19 107 -73 107 -8 0 -58 -40 -112 -89z"/>
<path d="M26510 16070 c-26 -26 -26 -81 0 -105 15 -13 84 -26 307 -56 158 -21
302 -41 318 -45 17 -3 28 -4 25 -1 -12 12 -585 227 -606 227 -13 0 -33 -9 -44
-20z"/>
<path d="M26374 15768 c-12 -5 -27 -21 -33 -34 -24 -53 -2 -73 272 -254 142
-93 261 -170 264 -170 5 0 -189 208 -362 387 -81 84 -98 92 -141 71z"/>
<path d="M26085 15535 c-14 -13 -25 -34 -25 -46 0 -18 320 -562 327 -556 1 2
-40 135 -92 297 -98 307 -109 330 -162 330 -13 0 -35 -11 -48 -25z"/>
</g>
</svg>
