<?xml version="1.0" standalone="no"?>
<!DOCTYPE svg PUBLIC "-//W3C//DTD SVG 20010904//EN"
 "http://www.w3.org/TR/2001/REC-SVG-20010904/DTD/svg10.dtd">
<svg version="1.0" xmlns="http://www.w3.org/2000/svg"
 width="64.000000pt" height="64.000000pt" viewBox="0 0 64.000000 64.000000"
 preserveAspectRatio="xMidYMid meet">

<g transform="translate(0.000000,64.000000) scale(0.100000,-0.100000)"
fill="#000000" stroke="none">
<path d="M95 608 c-11 -6 -27 -14 -35 -18 -11 -5 -16 -28 -18 -91 -2 -46 -7
-88 -12 -93 -13 -13 -12 -66 1 -107 18 -54 54 -95 103 -118 41 -19 46 -25 53
-63 4 -27 17 -53 34 -70 27 -28 29 -28 159 -28 l132 0 29 29 29 29 0 191 c0
189 0 190 25 215 50 50 15 136 -55 136 -70 0 -105 -86 -55 -136 l25 -25 -2
-187 -3 -187 -119 -3 c-66 -1 -124 2 -129 7 -5 5 -6 23 -2 40 5 25 16 36 51
53 49 23 85 64 103 117 13 41 14 94 1 107 -5 5 -10 47 -12 93 -2 62 -7 86 -18
91 -75 37 -100 37 -100 0 0 -27 25 -36 55 -20 13 7 28 9 34 6 14 -9 15 -162 1
-171 -5 -3 -10 -21 -10 -38 0 -71 -56 -135 -126 -143 -77 -10 -154 59 -154
137 0 21 -4 41 -10 44 -14 9 -13 162 1 171 6 3 21 1 34 -6 32 -17 57 -6 53 22
-3 26 -32 33 -63 16z m45 -18 c0 -5 -4 -10 -10 -10 -5 0 -10 5 -10 10 0 6 5
10 10 10 6 0 10 -4 10 -10z m180 0 c0 -5 -4 -10 -10 -10 -5 0 -10 5 -10 10 0
6 5 10 10 10 6 0 10 -4 10 -10z m260 -10 c11 -11 20 -29 20 -40 0 -26 -34 -60
-60 -60 -11 0 -29 9 -40 20 -11 11 -20 29 -20 40 0 11 9 29 20 40 11 11 29 20
40 20 11 0 29 -9 40 -20z m-30 -304 c0 -245 6 -236 -168 -236 -115 0 -128 2
-149 22 -23 22 -31 58 -13 58 6 0 10 -6 10 -14 0 -8 7 -22 16 -30 23 -23 245
-23 268 0 13 13 16 46 16 200 0 116 4 184 10 184 6 0 10 -68 10 -184z m-487
68 c5 -50 27 -85 71 -118 40 -31 130 -29 174 2 38 28 72 89 72 132 0 16 5 30
10 30 16 0 11 -62 -9 -105 -22 -48 -44 -69 -95 -90 -21 -9 -40 -25 -43 -36 -7
-25 -39 -25 -46 0 -3 11 -22 27 -43 36 -21 9 -47 23 -58 33 -26 24 -56 91 -56
130 0 49 17 38 23 -14z"/>
<path d="M510 565 c-15 -18 -10 -45 13 -59 34 -22 73 27 47 59 -16 19 -44 19
-60 0z m46 -16 c10 -17 -13 -36 -27 -22 -12 12 -4 33 11 33 5 0 12 -5 16 -11z"/>
<path d="M190 570 c0 -13 -7 -20 -20 -20 -16 0 -20 -7 -20 -30 0 -23 4 -30 20
-30 13 0 20 -7 20 -20 0 -16 7 -20 30 -20 23 0 30 4 30 20 0 13 7 20 20 20 16
0 20 7 20 30 0 23 -4 30 -20 30 -13 0 -20 7 -20 20 0 16 -7 20 -30 20 -23 0
-30 -4 -30 -20z m40 -20 c0 -13 7 -20 20 -20 11 0 20 -4 20 -10 0 -5 -9 -10
-20 -10 -13 0 -20 -7 -20 -20 0 -11 -4 -20 -10 -20 -5 0 -10 9 -10 20 0 13 -7
20 -20 20 -11 0 -20 5 -20 10 0 6 9 10 20 10 13 0 20 7 20 20 0 11 5 20 10 20
6 0 10 -9 10 -20z"/>
<path d="M104 419 c-7 -12 5 -81 17 -95 6 -8 21 -14 33 -13 21 0 21 0 -1 16
-46 32 -20 96 32 77 13 -5 16 -14 11 -40 -17 -95 -18 -109 -8 -99 5 6 17 37
25 70 12 48 16 53 16 28 1 -41 21 -44 21 -3 0 28 3 30 35 30 33 0 35 -2 35
-31 0 -19 -7 -37 -17 -45 -17 -12 -17 -13 3 -14 27 0 34 17 34 81 0 46 -11 62
-25 39 -7 -11 -48 -14 -59 -3 -9 9 -146 10 -152 2z"/>
<path d="M140 358 c0 -4 11 -8 25 -8 14 0 25 4 25 8 0 4 -11 8 -25 8 -14 0
-25 -4 -25 -8z"/>
<path d="M275 351 c-3 -5 2 -11 10 -15 8 -3 17 -1 20 3 3 5 -2 11 -10 15 -8 3
-17 1 -20 -3z"/>
<path d="M255 300 c4 -6 11 -8 16 -5 14 9 11 15 -7 15 -8 0 -12 -5 -9 -10z"/>
</g>
</svg>
