<?xml version="1.0" standalone="no"?>
<!DOCTYPE svg PUBLIC "-//W3C//DTD SVG 20010904//EN"
 "http://www.w3.org/TR/2001/REC-SVG-20010904/DTD/svg10.dtd">
<svg version="1.0" xmlns="http://www.w3.org/2000/svg"
 width="64.000000pt" height="64.000000pt" viewBox="0 0 64.000000 64.000000"
 preserveAspectRatio="xMidYMid meet">

<g transform="translate(0.000000,64.000000) scale(0.100000,-0.100000)"
fill="#000000" stroke="none">
<path d="M493 588 c-41 -41 -55 -50 -65 -40 -7 7 -26 12 -43 12 -26 0 -50 -20
-160 -130 -97 -97 -132 -127 -142 -119 -6 6 -17 8 -23 4 -8 -5 3 -22 29 -49
l41 -42 -38 -37 -38 -38 -19 21 c-13 14 -22 17 -29 10 -14 -14 77 -106 94 -95
8 5 6 13 -9 29 l-21 22 38 38 c34 32 40 35 52 21 7 -8 16 -15 21 -15 19 0 7
26 -28 62 l-37 38 29 30 c19 20 32 27 39 20 18 -18 28 -11 22 14 -4 15 0 28 9
36 13 11 20 9 40 -10 32 -30 45 -17 15 15 -19 20 -21 27 -10 40 8 9 21 13 36
9 25 -6 32 4 14 22 -7 7 4 23 30 49 39 38 42 39 68 25 14 -9 33 -28 42 -42 14
-26 13 -29 -18 -61 -30 -31 -41 -57 -24 -57 4 0 22 15 40 33 34 35 43 82 20
105 -10 10 -1 24 40 65 29 29 52 56 52 60 0 16 -18 4 -67 -45z"/>
<path d="M362 308 c-16 -16 -15 -79 2 -100 30 -41 73 -2 62 55 -10 52 -38 71
-64 45z m38 -59 c0 -16 -4 -29 -9 -29 -11 0 -24 48 -16 61 11 17 25 -1 25 -32z"/>
<path d="M475 310 c-30 -49 -22 -120 14 -120 28 0 43 32 39 83 -2 34 -7 43
-25 45 -11 2 -24 -2 -28 -8z m35 -39 c0 -26 -10 -51 -21 -51 -10 0 -12 31 -3
54 9 22 24 20 24 -3z"/>
<path d="M257 223 c-17 -16 -6 -63 18 -79 30 -20 55 -6 55 31 0 36 -51 70 -73
48z m53 -55 c0 -13 -17 -9 -30 7 -6 8 -8 20 -4 26 5 9 11 7 21 -6 7 -11 13
-22 13 -27z"/>
<path d="M567 212 c-21 -23 -22 -56 -3 -71 31 -26 79 31 62 74 -8 21 -39 19
-59 -3z m30 -39 c-21 -22 -32 -11 -17 17 9 16 15 19 23 11 8 -8 7 -16 -6 -28z"/>
<path d="M383 140 c-35 -21 -56 -73 -42 -101 10 -19 60 -39 99 -39 39 0 89 20
99 39 14 28 -7 80 -42 101 -41 25 -73 25 -114 0z m116 -36 c26 -33 26 -50 2
-64 -25 -13 -97 -13 -122 0 -24 14 -24 31 2 64 16 20 29 26 59 26 30 0 43 -6
59 -26z"/>
</g>
</svg>
