<?xml version="1.0" standalone="no"?>
<!DOCTYPE svg PUBLIC "-//W3C//DTD SVG 20010904//EN"
 "http://www.w3.org/TR/2001/REC-SVG-20010904/DTD/svg10.dtd">
<svg version="1.0" xmlns="http://www.w3.org/2000/svg"
 width="64.000000pt" height="64.000000pt" viewBox="0 0 64.000000 64.000000"
 preserveAspectRatio="xMidYMid meet">

<g transform="translate(0.000000,64.000000) scale(0.100000,-0.100000)"
fill="#000000" stroke="none">
<path d="M196 601 c-10 -11 -28 -21 -40 -23 -18 -3 -21 -10 -21 -48 l0 -45
113 -3 c107 -3 114 -1 119 18 4 15 14 20 39 20 l34 0 0 -160 c0 -100 4 -160
10 -160 6 0 10 63 10 170 l0 170 -44 0 c-35 0 -45 4 -49 20 -3 11 -14 20 -25
20 -10 0 -27 9 -37 20 -24 27 -86 27 -109 1z m99 -11 c4 -6 -13 -10 -45 -10
-32 0 -49 4 -45 10 3 6 24 10 45 10 21 0 42 -4 45 -10z m55 -60 l0 -30 -100 0
-100 0 0 30 0 30 100 0 100 0 0 -30z"/>
<path d="M547 544 c-4 -4 -7 -18 -7 -31 0 -12 -4 -23 -10 -23 -5 0 -10 -8 -10
-19 0 -10 -9 -21 -20 -24 -18 -5 -20 -14 -20 -76 0 -41 4 -71 10 -71 6 0 10
20 10 45 0 25 5 45 10 45 6 0 10 -46 11 -117 0 -65 6 -145 13 -178 11 -53 15
-60 36 -60 21 0 25 7 36 60 15 73 18 165 4 165 -5 0 -10 -20 -10 -45 0 -43 -1
-45 -30 -45 l-30 0 0 110 0 110 30 0 c30 0 30 -1 30 -55 0 -30 5 -55 10 -55 6
0 10 42 10 105 0 58 -4 105 -9 105 -5 0 -11 12 -13 28 -3 26 -34 43 -51 26z
m33 -34 c0 -11 -4 -20 -10 -20 -5 0 -10 9 -10 20 0 11 5 20 10 20 6 0 10 -9
10 -20z m20 -50 c0 -5 -13 -10 -30 -10 -16 0 -30 5 -30 10 0 6 14 10 30 10 17
0 30 -4 30 -10z m-80 -40 c0 -5 -4 -10 -10 -10 -5 0 -10 5 -10 10 0 6 5 10 10
10 6 0 10 -4 10 -10z m80 0 c0 -5 -13 -10 -30 -10 -16 0 -30 5 -30 10 0 6 14
10 30 10 17 0 30 -4 30 -10z m-9 -297 c-4 -16 -14 -28 -21 -28 -7 0 -17 12
-21 28 -7 25 -5 27 21 27 26 0 28 -2 21 -27z m-11 -63 c0 -5 -4 -10 -10 -10
-5 0 -10 5 -10 10 0 6 5 10 10 10 6 0 10 -4 10 -10z"/>
<path d="M40 280 l0 -260 210 0 210 0 0 80 c0 47 -4 80 -10 80 -6 0 -10 -30
-10 -70 l0 -70 -190 0 -190 0 0 240 0 240 25 0 c14 0 25 5 25 10 0 6 -16 10
-35 10 l-35 0 0 -260z"/>
<path d="M168 414 c-15 -32 0 -59 32 -59 13 0 28 8 33 17 15 23 -6 68 -33 68
-12 0 -25 -10 -32 -26z m49 -10 c8 -21 -13 -42 -28 -27 -13 13 -5 43 11 43 6
0 13 -7 17 -16z"/>
<path d="M268 414 c-15 -32 0 -59 32 -59 13 0 28 8 33 17 15 23 -6 68 -33 68
-12 0 -25 -10 -32 -26z m49 -10 c8 -21 -13 -42 -28 -27 -13 13 -5 43 11 43 6
0 13 -7 17 -16z"/>
<path d="M92 353 c3 -32 44 -46 54 -19 8 21 -13 46 -38 46 -15 0 -19 -6 -16
-27z m38 -3 c0 -5 -4 -10 -10 -10 -5 0 -10 5 -10 10 0 6 5 10 10 10 6 0 10 -4
10 -10z"/>
<path d="M360 365 c-18 -21 -5 -47 22 -43 31 4 40 58 10 58 -11 0 -25 -7 -32
-15z m30 -15 c0 -5 -4 -10 -10 -10 -5 0 -10 5 -10 10 0 6 5 10 10 10 6 0 10
-4 10 -10z"/>
<path d="M178 324 c-35 -18 -44 -54 -28 -107 24 -79 95 -120 146 -83 27 20 14
28 -23 14 -26 -10 -35 -9 -58 6 -29 19 -55 71 -55 110 0 34 35 56 90 56 65 0
94 -22 87 -69 -3 -20 -8 -44 -12 -53 -4 -11 -3 -18 4 -18 15 0 35 74 27 104
-12 50 -117 74 -178 40z"/>
<path d="M220 275 c0 -8 -7 -15 -15 -15 -10 0 -15 -10 -15 -30 0 -20 5 -30 15
-30 8 0 15 -7 15 -15 0 -10 10 -15 30 -15 20 0 30 5 30 15 0 8 7 15 15 15 10
0 15 10 15 30 0 20 -5 30 -15 30 -8 0 -15 7 -15 15 0 10 -10 15 -30 15 -20 0
-30 -5 -30 -15z m40 -20 c0 -8 7 -15 15 -15 8 0 15 -4 15 -10 0 -5 -7 -10 -15
-10 -8 0 -15 -7 -15 -15 0 -8 -4 -15 -10 -15 -5 0 -10 7 -10 15 0 8 -7 15 -15
15 -8 0 -15 5 -15 10 0 6 7 10 15 10 8 0 15 7 15 15 0 8 5 15 10 15 6 0 10 -7
10 -15z"/>
<path d="M190 80 c0 -6 27 -10 60 -10 33 0 60 4 60 10 0 6 -27 10 -60 10 -33
0 -60 -4 -60 -10z"/>
</g>
</svg>
