<?xml version="1.0" standalone="no"?>
<!DOCTYPE svg PUBLIC "-//W3C//DTD SVG 20010904//EN"
 "http://www.w3.org/TR/2001/REC-SVG-20010904/DTD/svg10.dtd">
<svg version="1.0" xmlns="http://www.w3.org/2000/svg"
 width="500.000000pt" height="500.000000pt" viewBox="0 0 500.000000 500.000000"
 preserveAspectRatio="xMidYMid meet">

<g transform="translate(0.000000,500.000000) scale(0.100000,-0.100000)"
fill="#000000" stroke="none">
<path d="M1399 4715 c-336 -67 -609 -312 -712 -640 -36 -115 -51 -259 -38
-363 12 -92 15 -102 37 -102 17 0 16 -6 4 100 -32 272 76 554 285 747 286 264
703 309 1052 112 99 -56 253 -206 303 -297 51 -91 55 -96 74 -89 15 6 14 13
-13 64 -130 243 -393 429 -671 473 -87 13 -240 11 -321 -5z"/>
<path d="M1777 4240 c-98 -25 -200 -107 -228 -183 l-12 -35 -41 33 c-86 69
-177 94 -274 75 -214 -44 -308 -232 -212 -426 21 -44 52 -83 104 -131 75 -70
212 -156 250 -157 42 -2 20 29 -47 66 -229 125 -338 285 -293 431 21 69 57
111 127 146 119 59 247 36 337 -62 42 -47 69 -59 76 -34 22 77 44 117 86 158
116 114 318 105 399 -18 94 -141 47 -310 -153 -547 -28 -34 -36 -50 -28 -58
18 -18 36 -3 105 82 78 97 141 216 157 296 40 193 -72 354 -257 369 -32 2 -75
0 -96 -5z"/>
<path d="M1512 3363 c2 -12 25 -26 63 -40 75 -27 118 -30 113 -6 -2 10 -28 25
-72 40 -85 28 -109 29 -104 6z"/>
<path d="M3184 3085 c-17 -17 -24 -34 -22 -53 4 -32 38 -45 38 -13 0 11 7 27
16 36 19 19 41 6 46 -28 2 -12 11 -23 21 -25 30 -6 23 62 -9 87 -35 28 -59 26
-90 -4z"/>
<path d="M3846 3089 c-32 -25 -39 -93 -8 -87 9 2 18 13 20 25 2 12 10 27 19
34 13 11 17 10 29 -6 8 -10 14 -27 14 -38 0 -12 6 -17 18 -15 25 5 20 67 -8
90 -29 23 -51 23 -84 -3z"/>
<path d="M1080 3025 c0 -39 335 -164 363 -136 17 17 -1 27 -90 49 -46 12 -120
39 -166 62 -91 44 -107 48 -107 25z"/>
<path d="M3470 2785 c-12 -14 -11 -22 5 -51 18 -34 63 -74 83 -74 5 0 26 18
46 41 27 29 36 48 34 67 -3 24 -7 27 -38 25 -60 -5 -64 -4 -91 2 -17 5 -29 1
-39 -10z"/>
<path d="M3345 2590 c-4 -6 1 -22 10 -36 29 -45 94 -56 163 -29 34 14 42 14
75 0 55 -23 100 -19 136 11 17 14 31 32 31 39 0 26 -21 27 -45 1 -30 -32 -75
-34 -128 -6 -37 20 -37 20 -69 0 -47 -28 -99 -26 -128 5 -26 27 -35 30 -45 15z"/>
<path d="M853 1838 c-25 -27 -46 -76 -37 -89 11 -18 30 -8 49 28 28 54 52 55
72 3 20 -49 49 -52 46 -5 -6 73 -85 111 -130 63z"/>
<path d="M1394 1845 c-39 -27 -57 -105 -24 -105 5 0 18 17 28 38 23 49 51 49
74 2 23 -45 44 -46 41 -2 -3 66 -69 103 -119 67z"/>
<path d="M1073 1749 c-27 -10 -37 -42 -22 -71 14 -28 100 -118 112 -118 17 0
86 61 106 94 27 42 27 71 0 89 -22 16 -67 9 -94 -13 -8 -7 -15 -7 -19 -1 -10
16 -60 29 -83 20z"/>
<path d="M1074 1518 c-9 -14 69 -88 93 -88 26 0 93 58 93 81 0 28 -22 23 -55
-11 -16 -16 -32 -30 -37 -30 -4 0 -23 14 -41 30 -39 33 -43 35 -53 18z"/>
<path d="M2806 902 c-2 -4 4 -98 14 -207 11 -110 19 -217 20 -237 l0 -38 -50
0 c-94 0 -140 -41 -140 -126 0 -65 7 -84 31 -84 17 0 18 6 13 58 -5 48 -3 61
14 82 17 21 30 25 93 28 41 2 77 7 81 11 7 6 -24 405 -38 489 -5 30 -26 43
-38 24z"/>
<path d="M4220 898 c0 -7 -9 -110 -20 -228 -11 -118 -20 -231 -20 -251 l0 -37
75 -4 c60 -3 79 -8 97 -25 23 -23 29 -70 15 -111 -6 -16 -4 -24 8 -28 24 -10
35 7 41 62 9 88 -46 144 -142 144 -30 0 -54 3 -54 8 0 4 9 104 20 222 25 268
25 260 0 260 -11 0 -20 -6 -20 -12z"/>
<path d="M664 508 c4 -40 10 -89 13 -109 5 -36 5 -36 -37 -42 -23 -3 -50 -13
-61 -23 -37 -33 -45 -128 -10 -122 11 2 17 16 19 40 4 47 32 68 89 68 51 0 50
-3 32 160 -11 89 -14 100 -32 100 -18 0 -19 -5 -13 -72z"/>
<path d="M1645 568 c-6 -18 -25 -187 -25 -220 0 -26 3 -28 45 -28 58 0 101
-36 91 -76 -5 -17 -2 -26 10 -31 41 -15 42 74 1 115 -14 14 -41 26 -66 29 -37
5 -42 9 -37 27 3 12 8 60 12 109 6 77 5 87 -10 87 -9 0 -19 -6 -21 -12z"/>
<path d="M877 463 c-4 -3 -7 -62 -7 -130 0 -113 2 -124 18 -121 15 3 17 18 20
119 2 89 -1 119 -11 127 -8 7 -17 9 -20 5z"/>
<path d="M1441 456 c-8 -9 -11 -53 -9 -127 3 -99 5 -114 21 -117 15 -3 17 8
17 122 0 123 -6 149 -29 122z"/>
</g>
</svg>
